<mxfile host="app.diagrams.net" modified="2024-04-01T10:10:27.168Z" agent="Mozilla/5.0 (Macintosh; Intel Mac OS X 10_15_7) AppleWebKit/537.36 (KHTML, like Gecko) Chrome/123.0.0.0 Safari/537.36" version="24.0.7" etag="DM-gXttodRd5CRSFbMIM" type="github">
  <diagram name="第 1 页" id="Fb9q8rRTYLqdxSb5e0N4">
    <mxGraphModel>
      <root>
        <mxCell id="0" />
        <mxCell id="1" parent="0" />
      </root>
    </mxGraphModel>
  </diagram>
</mxfile>
